# xmcd CD database file
#
# Track frame offsets:
#	183
#	45708
#	73458
#	111783
#	172833
#	195708
#	213933
#
# Disc length: 3213 seconds
#
# Revision: 1
# Processed by: cddbd v1.5PL3 Copyright (c) Steve Scherf et al.
# Submitted via: CDex 1.50
#
DISCID=630c8b07
DTITLE=Mal Waldron/David Friesen - Dedication
DYEAR=1900
DGENRE=Jazz
TTITLE0=Dedication
TTITLE1=All God's Chillung Got Rhythm
TTITLE2=It Never Enterd My Mind
TTITLE3=Rhythmics
TTITLE4=Mowgly the Cat
TTITLE5=Tapestry
TTITLE6=Batik
EXTD=
EXTT0=
EXTT1=
EXTT2=
EXTT3=
EXTT4=
EXTT5=
EXTT6=
PLAYORDER=
